HIERARCHY
ROOT Hips
{
	OFFSET -0.001795 -0.223333 0.028219
	CHANNELS 6 Xposition Yposition Zposition Zrotation Yrotation Xrotation 
	JOINT LeftUpLeg
	{
		OFFSET 0.069520 -0.091406 -0.006815
		CHANNELS 3 Zrotation Yrotation Xrotation
		JOINT LeftLeg
		{
			OFFSET 0.034277 -0.375199 -0.004496
			CHANNELS 3 Zrotation Yrotation Xrotation
			JOINT LeftFoot
			{
				OFFSET -0.013596 -0.397961 -0.043693
				CHANNELS 3 Zrotation Yrotation Xrotation
				JOINT LeftToe
				{
					OFFSET 0.026358 -0.055791 0.119288
					CHANNELS 3 Zrotation Yrotation Xrotation
					End Site
					{
						OFFSET 0.000000 0.000000 0.000000
					}
				}
			}
		}
	}
	JOINT RightUpLeg
	{
		OFFSET -0.067670 -0.090522 -0.004320
		CHANNELS 3 Zrotation Yrotation Xrotation
		JOINT RightLeg
		{
			OFFSET -0.038290 -0.382569 -0.008850
			CHANNELS 3 Zrotation Yrotation Xrotation
			JOINT RightFoot
			{
				OFFSET 0.015774 -0.398415 -0.042312
				CHANNELS 3 Zrotation Yrotation Xrotation
				JOINT RightToe
				{
					OFFSET -0.025372 -0.048144 0.123348
					CHANNELS 3 Zrotation Yrotation Xrotation
					End Site
					{
						OFFSET 0.000000 0.000000 0.000000
					}
				}
			}
		}
	}
	JOINT Spine
	{
		OFFSET -0.002533 0.108963 -0.026696
		CHANNELS 3 Zrotation Yrotation Xrotation
		JOINT Spine1
		{
			OFFSET 0.005487 0.135180 0.001092
			CHANNELS 3 Zrotation Yrotation Xrotation
			JOINT Spine2
			{
				OFFSET 0.001457 0.052922 0.025425
				CHANNELS 3 Zrotation Yrotation Xrotation
				JOINT Neck
				{
					OFFSET -0.002778 0.213870 -0.042857
					CHANNELS 3 Zrotation Yrotation Xrotation
					JOINT Head
					{
						OFFSET 0.005152 0.064970 0.051349
						CHANNELS 3 Zrotation Yrotation Xrotation
						End Site
						{
							OFFSET 0.000000 0.000000 0.000000
						}
					}
				}
				JOINT LeftShoulder
				{
					OFFSET 0.078845 0.121749 -0.034090
					CHANNELS 3 Zrotation Yrotation Xrotation
					JOINT LeftArm
					{
						OFFSET 0.090977 0.030469 -0.008868
						CHANNELS 3 Zrotation Yrotation Xrotation
						JOINT LeftForeArm
						{
							OFFSET 0.259612 -0.012772 -0.027456
							CHANNELS 3 Zrotation Yrotation Xrotation
							JOINT LeftHand
							{
								OFFSET 0.249234 0.008986 -0.001171
								CHANNELS 3 Zrotation Yrotation Xrotation
								End Site
								{
									OFFSET 0.000000 0.000000 0.000000
								}
							}
						}
					}
				}
				JOINT RightShoulder
				{
					OFFSET -0.081759 0.118833 -0.038615
					CHANNELS 3 Zrotation Yrotation Xrotation
					JOINT RightArm
					{
						OFFSET -0.096012 0.032551 -0.009143
						CHANNELS 3 Zrotation Yrotation Xrotation
						JOINT RightForeArm
						{
							OFFSET -0.253742 -0.013329 -0.021401
							CHANNELS 3 Zrotation Yrotation Xrotation
							JOINT RightHand
							{
								OFFSET -0.255298 0.007772 -0.005559
								CHANNELS 3 Zrotation Yrotation Xrotation
								End Site
								{
									OFFSET 0.000000 0.000000 0.000000
								}
							}
						}
					}
				}
			}
		}
	}
}
MOTION
Frames: 9
Frame Time: 0.050000
0.000000 0.957361 0.000000 -0.854465 2.352137 4.118922 3.149112 -0.087623 -0.033236 -0.556921 0.224662 -5.894808 -0.791434 2.932565 10.197820 0.000000 0.000000 0.000000 -1.344834 0.292693 -2.812728 -0.348794 -0.079840 -2.770891 0.947989 -1.990753 9.764395 0.000000 0.000000 0.000000 1.423303 0.109350 -2.729296 0.018341 0.124619 -3.954267 -1.101546 0.216436 8.130378 3.597727 -0.385374 -20.879908 0.000000 0.000000 0.000000 -19.591885 -2.874119 -0.671748 -47.509308 -4.645434 -4.021721 4.460612 -19.182018 -0.026047 0.000000 0.000000 0.000000 16.063597 1.091522 -0.468051 54.963299 7.325137 -2.361662 -12.077400 24.292337 -1.331142 0.000000 0.000000 0.000000
-0.000200 0.956265 0.000712 -0.782063 1.791517 4.473653 3.090079 -0.068204 0.241003 -0.789617 0.271687 -7.203709 -0.740674 2.873610 9.983125 0.000000 0.000000 0.000000 -2.055038 0.322874 -3.106068 0.690412 -0.165522 -2.727082 1.047648 -1.771382 9.546722 0.000000 0.000000 0.000000 1.444806 0.126602 -3.078165 -0.277097 0.223810 -3.186318 -1.081369 0.843534 6.957863 4.023751 -0.432390 -22.066809 0.000000 0.000000 0.000000 -19.125267 -2.820856 -1.617558 -47.447514 -3.731051 -4.233867 7.206807 -18.505054 -0.483322 0.000000 0.000000 0.000000 16.065552 -0.326789 -1.165350 54.894810 6.245426 -2.729202 -15.576600 25.616940 -2.105115 0.000000 0.000000 0.000000
-0.000165 0.955787 0.001483 -0.291978 2.664364 4.450205 2.883996 -0.050249 0.491194 -0.915813 0.268934 -7.054672 -1.487453 1.852133 10.397346 0.000000 0.000000 0.000000 -2.608967 0.299288 -2.830179 0.677435 -0.180171 -3.154908 0.810929 -2.130791 9.495455 0.000000 0.000000 0.000000 1.213464 0.115558 -2.907678 -0.232861 0.262802 -4.813380 -1.274677 -0.334738 7.867152 4.053077 -0.658174 -21.059042 0.000000 0.000000 0.000000 -17.739204 -2.779503 -1.108174 -47.245102 -2.992968 -4.622590 7.864226 -18.339661 -0.548310 0.000000 0.000000 0.000000 16.580692 -0.322485 -1.321505 53.628235 6.061659 -2.845155 -19.586040 25.460571 -2.926749 0.000000 0.000000 0.000000
-0.000073 0.955833 0.002444 -0.168955 3.740319 4.735912 2.790607 -0.086962 -0.017716 -0.758136 0.258822 -7.118641 -2.135878 0.932310 10.548542 0.000000 0.000000 0.000000 -2.801664 0.299069 -2.855127 1.194374 -0.238582 -3.596434 0.462251 -2.785874 9.707676 0.000000 0.000000 0.000000 0.962120 0.146184 -3.654410 -0.227522 0.253243 -4.190887 -0.918161 -1.204809 7.208135 3.711429 -0.447794 -21.532852 0.000000 0.000000 0.000000 -17.651825 -2.227024 -0.639941 -47.220505 -2.721036 -4.678935 8.617446 -18.478346 -0.663176 0.000000 0.000000 0.000000 16.108044 -0.233262 -1.327810 53.084885 5.385139 -3.034853 -24.643656 27.974026 -4.464311 0.000000 0.000000 0.000000
0.000023 0.956096 0.003348 0.213101 4.397476 4.710487 2.432989 -0.032220 0.670737 -0.944548 0.280301 -8.021532 -2.274512 1.005707 11.081818 0.000000 0.000000 0.000000 -2.881226 0.250358 -2.254986 0.946368 -0.236117 -4.089007 -0.105008 -3.931547 9.921197 0.000000 0.000000 0.000000 0.687969 0.138903 -3.573971 0.322938 0.040036 -4.585557 -1.233579 -1.381838 7.350519 3.682740 -0.454818 -21.044315 0.000000 0.000000 0.000000 -17.491644 -2.122983 -0.176168 -47.113754 -2.627309 -4.698528 7.701981 -19.059252 -0.548016 0.000000 0.000000 0.000000 16.209055 -1.447060 -1.901821 52.355347 5.422413 -3.005645 -30.627928 34.109509 -7.308494 0.000000 0.000000 0.000000
0.000248 0.956075 0.003984 0.394094 4.652963 4.925678 2.326509 -0.049944 0.374799 -0.893873 0.263378 -7.336240 -2.077435 1.216001 10.729670 0.000000 0.000000 0.000000 -3.383261 0.276256 -2.585029 1.332722 -0.257042 -3.761593 -0.307435 -4.150277 9.389342 0.000000 0.000000 0.000000 0.679455 0.149313 -3.856042 0.524712 -0.036280 -4.741215 -1.233141 -1.243601 7.432617 3.781349 -0.405002 -21.711329 0.000000 0.000000 0.000000 -17.476688 -2.359652 0.074469 -47.318474 -2.335669 -4.817752 6.757759 -20.567575 -0.441018 0.000000 0.000000 0.000000 15.535934 -1.356057 -1.732479 51.405373 6.141809 -2.674274 -40.309761 40.219402 -12.282864 0.000000 0.000000 0.000000
0.000473 0.956842 0.004085 0.669598 4.351751 5.067191 1.972381 -0.051484 0.155707 -1.566598 0.290096 -7.475397 -1.697752 2.218568 11.688330 0.000000 0.000000 0.000000 -3.649357 0.278071 -2.558284 1.300925 -0.251127 -3.683138 -0.181076 -3.846847 9.135167 0.000000 0.000000 0.000000 0.951736 0.156921 -3.970199 0.583408 -0.071526 -4.591985 -1.545277 -1.415982 6.923800 3.849466 -0.522090 -21.194210 0.000000 0.000000 0.000000 -17.853394 -2.338045 -1.251699 -47.575481 -1.289918 -5.204034 4.422781 -22.581902 -0.024524 0.000000 0.000000 0.000000 15.478050 -1.204609 -1.723091 49.362839 8.308447 -1.680962 -53.812210 50.516800 -23.016626 0.000000 0.000000 0.000000
0.000969 0.957329 0.003879 0.823219 3.357525 5.091755 1.687645 -0.059131 -0.116947 -1.689727 0.287609 -6.561149 -1.353187 2.513305 11.289327 0.000000 0.000000 0.000000 -4.028246 0.313509 -2.970708 1.661051 -0.260750 -3.068082 0.111889 -3.058676 8.262740 0.000000 0.000000 0.000000 1.132372 0.154439 -3.823376 0.239423 0.078187 -5.002886 -1.454239 -1.078376 6.480755 4.448329 -0.967276 -20.341320 0.000000 0.000000 0.000000 -17.738583 -2.736538 -1.268453 -48.700172 0.040262 -5.824214 1.703835 -24.515066 0.558520 0.000000 0.000000 0.000000 14.288016 0.077766 -1.038884 46.085598 11.953848 -0.228252 -74.872902 56.641701 -39.978561 0.000000 0.000000 0.000000
0.001756 0.958465 0.003889 0.913628 2.693432 5.364825 1.427051 -0.103864 -0.806590 -2.078787 0.301021 -5.997491 -0.845842 3.191590 11.046553 0.000000 0.000000 0.000000 -3.934988 0.311667 -2.831549 1.191224 -0.233632 -3.547287 0.571312 -2.183610 8.325927 0.000000 0.000000 0.000000 1.635240 0.169717 -4.039093 -0.183528 0.260556 -5.454819 -1.653713 -0.507928 6.158315 5.224353 -1.431012 -19.803015 0.000000 0.000000 0.000000 -17.822617 -3.214464 -0.790448 -49.580212 0.629601 -6.128531 -1.275298 -25.259933 1.212623 0.000000 0.000000 0.000000 13.028824 0.915769 -0.501202 41.374828 16.924719 1.327493 -98.370895 56.078232 -57.217407 0.000000 0.000000 0.000000
